<?xml version="1.0" encoding="UTF-8" standalone="no"?>
<!DOCTYPE svg PUBLIC "-//W3C//DTD SVG 1.1//EN"
 "http://www.w3.org/Graphics/SVG/1.1/DTD/svg11.dtd">
<!-- Generated by graphviz version 2.43.0 (0)
 -->
<!-- Title: %3 Pages: 1 -->
<svg width="614pt" height="211pt"
 viewBox="0.00 0.00 614.00 210.50" xmlns="http://www.w3.org/2000/svg" xmlns:xlink="http://www.w3.org/1999/xlink">
<g id="graph0" class="graph" transform="scale(1 1) rotate(0) translate(4 206.5)">
<title>%3</title>
<polygon fill="white" stroke="transparent" points="-4,4 -4,-206.5 610,-206.5 610,4 -4,4"/>
<!-- ouvrages -->
<g id="node1" class="node">
<title>ouvrages</title>
<polygon fill="none" stroke="black" points="8.5,-118.5 8.5,-146.5 139.5,-146.5 139.5,-118.5 8.5,-118.5"/>
<text text-anchor="start" x="32" y="-129.7" font-family="Helvetica,sans-Serif" font-weight="bold" font-size="16.00">ouvrages</text>
<polygon fill="none" stroke="black" points="8.5,-93.5 8.5,-118.5 139.5,-118.5 139.5,-93.5 8.5,-93.5"/>
<text text-anchor="start" x="13.5" y="-103.3" font-family="Helvetica,sans-Serif" text-decoration="underline" font-size="14.00">nom</text>
<text text-anchor="start" x="44.5" y="-103.3" font-family="Helvetica,sans-Serif" font-size="14.00"> [TEXT]</text>
<polygon fill="none" stroke="black" points="8.5,-68.5 8.5,-93.5 139.5,-93.5 139.5,-68.5 8.5,-68.5"/>
<text text-anchor="start" x="13.5" y="-78.3" font-family="Helvetica,sans-Serif" font-size="14.00">commune</text>
<text text-anchor="start" x="83.5" y="-78.3" font-family="Helvetica,sans-Serif" font-size="14.00"> [TEXT]</text>
</g>
<!-- piezometres -->
<g id="node2" class="node">
<title>piezometres</title>
<polygon fill="none" stroke="black" points="228.5,-170.5 228.5,-198.5 374.5,-198.5 374.5,-170.5 228.5,-170.5"/>
<text text-anchor="start" x="246" y="-181.7" font-family="Helvetica,sans-Serif" font-weight="bold" font-size="16.00">piezometres</text>
<polygon fill="none" stroke="black" points="228.5,-145.5 228.5,-170.5 374.5,-170.5 374.5,-145.5 228.5,-145.5"/>
<text text-anchor="start" x="233.5" y="-155.3" font-family="Helvetica,sans-Serif" text-decoration="underline" font-size="14.00">nom</text>
<text text-anchor="start" x="264.5" y="-155.3" font-family="Helvetica,sans-Serif" font-size="14.00"> [TEXT]</text>
<polygon fill="none" stroke="black" points="228.5,-120.5 228.5,-145.5 374.5,-145.5 374.5,-120.5 228.5,-120.5"/>
<text text-anchor="start" x="233.5" y="-130.3" font-family="Helvetica,sans-Serif" font-size="14.00">enregistreur</text>
<text text-anchor="start" x="318.5" y="-130.3" font-family="Helvetica,sans-Serif" font-size="14.00"> [TEXT]</text>
</g>
<!-- ouvrages&#45;&#45;piezometres -->
<g id="edge1" class="edge">
<title>ouvrages&#45;&#45;piezometres</title>
<path fill="none" stroke="#7f7f7f" stroke-dasharray="5,2" d="M147.25,-124.24C170.61,-129.61 196.6,-135.59 220.45,-141.08"/>
<text text-anchor="start" x="179.45" y="-129.88" font-family="Times,serif" font-size="14.00">{0,1}</text>
<text text-anchor="start" x="147.25" y="-113.04" font-family="Times,serif" font-size="14.00">0..N</text>
</g>
<!-- puits_captages -->
<g id="node3" class="node">
<title>puits_captages</title>
<polygon fill="none" stroke="black" points="228.5,-66.5 228.5,-94.5 375.5,-94.5 375.5,-66.5 228.5,-66.5"/>
<text text-anchor="start" x="234.5" y="-77.7" font-family="Helvetica,sans-Serif" font-weight="bold" font-size="16.00">puits_captages</text>
<polygon fill="none" stroke="black" points="228.5,-41.5 228.5,-66.5 375.5,-66.5 375.5,-41.5 228.5,-41.5"/>
<text text-anchor="start" x="233.5" y="-51.3" font-family="Helvetica,sans-Serif" text-decoration="underline" font-size="14.00">nom</text>
<text text-anchor="start" x="264.5" y="-51.3" font-family="Helvetica,sans-Serif" font-size="14.00"> [TEXT]</text>
<polygon fill="none" stroke="black" points="228.5,-16.5 228.5,-41.5 375.5,-41.5 375.5,-16.5 228.5,-16.5"/>
<text text-anchor="start" x="233.5" y="-26.3" font-family="Helvetica,sans-Serif" font-size="14.00">type_pompe</text>
<text text-anchor="start" x="319.5" y="-26.3" font-family="Helvetica,sans-Serif" font-size="14.00"> [TEXT]</text>
</g>
<!-- ouvrages&#45;&#45;puits_captages -->
<g id="edge2" class="edge">
<title>ouvrages&#45;&#45;puits_captages</title>
<path fill="none" stroke="#7f7f7f" stroke-dasharray="5,2" d="M147.25,-90.76C170.35,-85.45 196.03,-79.54 219.66,-74.1"/>
<text text-anchor="start" x="178.66" y="-62.9" font-family="Times,serif" font-size="14.00">{0,1}</text>
<text text-anchor="start" x="147.25" y="-79.56" font-family="Times,serif" font-size="14.00">0..N</text>
</g>
<!-- prelevements -->
<g id="node4" class="node">
<title>prelevements</title>
<polygon fill="none" stroke="black" points="464,-78.5 464,-106.5 598,-106.5 598,-78.5 464,-78.5"/>
<text text-anchor="start" x="469.5" y="-89.7" font-family="Helvetica,sans-Serif" font-weight="bold" font-size="16.00">prelevements</text>
<polygon fill="none" stroke="black" points="464,-53.5 464,-78.5 598,-78.5 598,-53.5 464,-53.5"/>
<text text-anchor="start" x="469" y="-63.3" font-family="Helvetica,sans-Serif" text-decoration="underline" font-size="14.00">nom_puits</text>
<text text-anchor="start" x="542" y="-63.3" font-family="Helvetica,sans-Serif" font-size="14.00"> [TEXT]</text>
<polygon fill="none" stroke="black" points="464,-28.5 464,-53.5 598,-53.5 598,-28.5 464,-28.5"/>
<text text-anchor="start" x="469" y="-38.3" font-family="Helvetica,sans-Serif" text-decoration="underline" font-size="14.00">annee</text>
<text text-anchor="start" x="512" y="-38.3" font-family="Helvetica,sans-Serif" font-size="14.00"> [INTEGER]</text>
<polygon fill="none" stroke="black" points="464,-3.5 464,-28.5 598,-28.5 598,-3.5 464,-3.5"/>
<text text-anchor="start" x="469" y="-13.3" font-family="Helvetica,sans-Serif" font-size="14.00">volume</text>
<text text-anchor="start" x="521" y="-13.3" font-family="Helvetica,sans-Serif" font-size="14.00"> [REAL]</text>
</g>
<!-- puits_captages&#45;&#45;prelevements -->
<g id="edge3" class="edge">
<title>puits_captages&#45;&#45;prelevements</title>
<path fill="none" stroke="#7f7f7f" stroke-dasharray="5,2" d="M383.03,-55.5C406.68,-55.5 432.42,-55.5 455.66,-55.5"/>
<text text-anchor="start" x="414.66" y="-44.3" font-family="Times,serif" font-size="14.00">{0,1}</text>
<text text-anchor="start" x="383.03" y="-44.3" font-family="Times,serif" font-size="14.00">0..N</text>
</g>
</g>
</svg>
