<?xml version="1.0" encoding="UTF-8" standalone="no"?>
<!DOCTYPE svg PUBLIC "-//W3C//DTD SVG 1.1//EN"
 "http://www.w3.org/Graphics/SVG/1.1/DTD/svg11.dtd">
<!-- Generated by graphviz version 2.40.1 (20161225.0304)
 -->
<!-- Title: %3 Pages: 1 -->
<svg width="861pt" height="428pt"
 viewBox="0.00 0.00 861.00 427.50" xmlns="http://www.w3.org/2000/svg" xmlns:xlink="http://www.w3.org/1999/xlink">
<g id="graph0" class="graph" transform="scale(1 1) rotate(0) translate(4 423.5)">
<title>%3</title>
<polygon fill="#ffffff" stroke="transparent" points="-4,4 -4,-423.5 857,-423.5 857,4 -4,4"/>
<!-- Descriptions_et_interpretations -->
<g id="node1" class="node">
<title>Descriptions_et_interpretations</title>
<polygon fill="none" stroke="#000000" points="594.5,-387 594.5,-415 845.5,-415 845.5,-387 594.5,-387"/>
<text text-anchor="start" x="599.5" y="-398.2" font-family="Helvetica,sans-Serif" font-weight="bold" font-size="16.00" fill="#000000">Descriptions_et_interpretations</text>
<polygon fill="none" stroke="#000000" points="594.5,-362 594.5,-387 845.5,-387 845.5,-362 594.5,-362"/>
<text text-anchor="start" x="599.5" y="-371.8" font-family="Helvetica,sans-Serif" text-decoration="underline" font-size="14.00" fill="#000000">NumInterp</text>
<text text-anchor="start" x="663.5" y="-371.8" font-family="Helvetica,sans-Serif" font-size="14.00" fill="#000000"> [INTEGER]</text>
<polygon fill="none" stroke="#000000" points="594.5,-337 594.5,-362 845.5,-362 845.5,-337 594.5,-337"/>
<text text-anchor="start" x="599.5" y="-346.8" font-family="Helvetica,sans-Serif" font-size="14.00" fill="#000000">NumAbs</text>
<text text-anchor="start" x="652.5" y="-346.8" font-family="Helvetica,sans-Serif" font-size="14.00" fill="#000000"> [INTEGER]</text>
<polygon fill="none" stroke="#000000" points="594.5,-312 594.5,-337 845.5,-337 845.5,-312 594.5,-312"/>
<text text-anchor="start" x="599.5" y="-321.8" font-family="Helvetica,sans-Serif" font-size="14.00" fill="#000000">Auteur</text>
<text text-anchor="start" x="639.5" y="-321.8" font-family="Helvetica,sans-Serif" font-size="14.00" fill="#000000"> [TEXT]</text>
<polygon fill="none" stroke="#000000" points="594.5,-287 594.5,-312 845.5,-312 845.5,-287 594.5,-287"/>
<text text-anchor="start" x="599.5" y="-296.8" font-family="Helvetica,sans-Serif" font-size="14.00" fill="#000000">Date</text>
<text text-anchor="start" x="628.5" y="-296.8" font-family="Helvetica,sans-Serif" font-size="14.00" fill="#000000"> [DATETIME]</text>
<polygon fill="none" stroke="#000000" points="594.5,-262 594.5,-287 845.5,-287 845.5,-262 594.5,-262"/>
<text text-anchor="start" x="599.5" y="-271.8" font-family="Helvetica,sans-Serif" font-size="14.00" fill="#000000">Commentaire</text>
<text text-anchor="start" x="682.5" y="-271.8" font-family="Helvetica,sans-Serif" font-size="14.00" fill="#000000"> [TEXT]</text>
</g>
<!-- Personnes -->
<g id="node2" class="node">
<title>Personnes</title>
<polygon fill="none" stroke="#000000" points="351.5,-208 351.5,-236 443.5,-236 443.5,-208 351.5,-208"/>
<text text-anchor="start" x="356.5" y="-219.2" font-family="Helvetica,sans-Serif" font-weight="bold" font-size="16.00" fill="#000000">Personnes</text>
<polygon fill="none" stroke="#000000" points="351.5,-183 351.5,-208 443.5,-208 443.5,-183 351.5,-183"/>
<text text-anchor="start" x="356.5" y="-192.8" font-family="Helvetica,sans-Serif" text-decoration="underline" font-size="14.00" fill="#000000">Nom</text>
<text text-anchor="start" x="386.5" y="-192.8" font-family="Helvetica,sans-Serif" font-size="14.00" fill="#000000"> [TEXT]</text>
<polygon fill="none" stroke="#000000" points="351.5,-158 351.5,-183 443.5,-183 443.5,-158 351.5,-158"/>
<text text-anchor="start" x="356.5" y="-167.8" font-family="Helvetica,sans-Serif" font-size="14.00" fill="#000000">Role</text>
<text text-anchor="start" x="384.5" y="-167.8" font-family="Helvetica,sans-Serif" font-size="14.00" fill="#000000"> [TEXT]</text>
</g>
<!-- Personnes&#45;&#45;Descriptions_et_interpretations -->
<g id="edge1" class="edge">
<title>Personnes&#45;&#45;Descriptions_et_interpretations</title>
<path fill="none" stroke="#7f7f7f" stroke-dasharray="5,2" d="M451.7588,-220.9278C488.5017,-237.1312 538.7438,-259.2876 585.785,-280.0325"/>
<text text-anchor="start" x="554.785" y="-268.8325" font-family="Times,serif" font-size="14.00" fill="#000000">{0,1}</text>
<text text-anchor="start" x="451.7588" y="-209.7278" font-family="Times,serif" font-size="14.00" fill="#000000">0..N</text>
</g>
<!-- Manipulations -->
<g id="node3" class="node">
<title>Manipulations</title>
<polygon fill="none" stroke="#000000" points="644.5,-208 644.5,-236 794.5,-236 794.5,-208 644.5,-208"/>
<text text-anchor="start" x="665" y="-219.2" font-family="Helvetica,sans-Serif" font-weight="bold" font-size="16.00" fill="#000000">Manipulations</text>
<polygon fill="none" stroke="#000000" points="644.5,-183 644.5,-208 794.5,-208 794.5,-183 644.5,-183"/>
<text text-anchor="start" x="649.5" y="-192.8" font-family="Helvetica,sans-Serif" text-decoration="underline" font-size="14.00" fill="#000000">NumManip</text>
<text text-anchor="start" x="716.5" y="-192.8" font-family="Helvetica,sans-Serif" font-size="14.00" fill="#000000"> [INTEGER]</text>
<polygon fill="none" stroke="#000000" points="644.5,-158 644.5,-183 794.5,-183 794.5,-158 644.5,-158"/>
<text text-anchor="start" x="649.5" y="-167.8" font-family="Helvetica,sans-Serif" font-size="14.00" fill="#000000">NumAbs</text>
<text text-anchor="start" x="702.5" y="-167.8" font-family="Helvetica,sans-Serif" font-size="14.00" fill="#000000"> [INTEGER]</text>
<polygon fill="none" stroke="#000000" points="644.5,-133 644.5,-158 794.5,-158 794.5,-133 644.5,-133"/>
<text text-anchor="start" x="649.5" y="-142.8" font-family="Helvetica,sans-Serif" font-size="14.00" fill="#000000">Operateur</text>
<text text-anchor="start" x="711.5" y="-142.8" font-family="Helvetica,sans-Serif" font-size="14.00" fill="#000000"> [TEXT]</text>
<polygon fill="none" stroke="#000000" points="644.5,-108 644.5,-133 794.5,-133 794.5,-108 644.5,-108"/>
<text text-anchor="start" x="649.5" y="-117.8" font-family="Helvetica,sans-Serif" font-size="14.00" fill="#000000">Procedure</text>
<text text-anchor="start" x="712.5" y="-117.8" font-family="Helvetica,sans-Serif" font-size="14.00" fill="#000000"> [TEXT]</text>
<polygon fill="none" stroke="#000000" points="644.5,-83 644.5,-108 794.5,-108 794.5,-83 644.5,-83"/>
<text text-anchor="start" x="649.5" y="-92.8" font-family="Helvetica,sans-Serif" font-size="14.00" fill="#000000">Date</text>
<text text-anchor="start" x="678.5" y="-92.8" font-family="Helvetica,sans-Serif" font-size="14.00" fill="#000000"> [DATETIME]</text>
<polygon fill="none" stroke="#000000" points="644.5,-58 644.5,-83 794.5,-83 794.5,-58 644.5,-58"/>
<text text-anchor="start" x="649.5" y="-67.8" font-family="Helvetica,sans-Serif" font-size="14.00" fill="#000000">Resultat</text>
<text text-anchor="start" x="699.5" y="-67.8" font-family="Helvetica,sans-Serif" font-size="14.00" fill="#000000"> [TEXT]</text>
</g>
<!-- Personnes&#45;&#45;Manipulations -->
<g id="edge2" class="edge">
<title>Personnes&#45;&#45;Manipulations</title>
<path fill="none" stroke="#7f7f7f" stroke-dasharray="5,2" d="M451.7588,-188.5747C502.213,-180.7402 578.1215,-168.9532 636.2429,-159.9281"/>
<text text-anchor="start" x="605.2429" y="-148.7281" font-family="Times,serif" font-size="14.00" fill="#000000">{0,1}</text>
<text text-anchor="start" x="451.7588" y="-177.3747" font-family="Times,serif" font-size="14.00" fill="#000000">0..N</text>
</g>
<!-- Echantillons -->
<g id="node4" class="node">
<title>Echantillons</title>
<polygon fill="none" stroke="#000000" points="329.5,-387 329.5,-415 465.5,-415 465.5,-387 329.5,-387"/>
<text text-anchor="start" x="349.5" y="-398.2" font-family="Helvetica,sans-Serif" font-weight="bold" font-size="16.00" fill="#000000">Echantillons</text>
<polygon fill="none" stroke="#000000" points="329.5,-362 329.5,-387 465.5,-387 465.5,-362 329.5,-362"/>
<text text-anchor="start" x="334.5" y="-371.8" font-family="Helvetica,sans-Serif" text-decoration="underline" font-size="14.00" fill="#000000">NumAbs</text>
<text text-anchor="start" x="387.5" y="-371.8" font-family="Helvetica,sans-Serif" font-size="14.00" fill="#000000"> [INTEGER]</text>
<polygon fill="none" stroke="#000000" points="329.5,-337 329.5,-362 465.5,-362 465.5,-337 329.5,-337"/>
<text text-anchor="start" x="334.5" y="-346.8" font-family="Helvetica,sans-Serif" font-size="14.00" fill="#000000">Origine</text>
<text text-anchor="start" x="379.5" y="-346.8" font-family="Helvetica,sans-Serif" font-size="14.00" fill="#000000"> [TEXT]</text>
<polygon fill="none" stroke="#000000" points="329.5,-312 329.5,-337 465.5,-337 465.5,-312 329.5,-312"/>
<text text-anchor="start" x="334.5" y="-321.8" font-family="Helvetica,sans-Serif" font-size="14.00" fill="#000000">NumTerrain</text>
<text text-anchor="start" x="407.5" y="-321.8" font-family="Helvetica,sans-Serif" font-size="14.00" fill="#000000"> [TEXT]</text>
<polygon fill="none" stroke="#000000" points="329.5,-287 329.5,-312 465.5,-312 465.5,-287 329.5,-287"/>
<text text-anchor="start" x="334.5" y="-296.8" font-family="Helvetica,sans-Serif" font-size="14.00" fill="#000000">Stockage</text>
<text text-anchor="start" x="391.5" y="-296.8" font-family="Helvetica,sans-Serif" font-size="14.00" fill="#000000"> [TEXT]</text>
<polygon fill="none" stroke="#000000" points="329.5,-262 329.5,-287 465.5,-287 465.5,-262 329.5,-262"/>
<text text-anchor="start" x="334.5" y="-271.8" font-family="Helvetica,sans-Serif" font-size="14.00" fill="#000000">Remarques</text>
<text text-anchor="start" x="405.5" y="-271.8" font-family="Helvetica,sans-Serif" font-size="14.00" fill="#000000"> [TEXT]</text>
</g>
<!-- Echantillons&#45;&#45;Descriptions_et_interpretations -->
<g id="edge3" class="edge">
<title>Echantillons&#45;&#45;Descriptions_et_interpretations</title>
<path fill="none" stroke="#7f7f7f" stroke-dasharray="5,2" d="M473.8095,-339C507.2852,-339 547.5897,-339 585.7841,-339"/>
<text text-anchor="start" x="554.7841" y="-327.8" font-family="Times,serif" font-size="14.00" fill="#000000">{0,1}</text>
<text text-anchor="start" x="473.8095" y="-327.8" font-family="Times,serif" font-size="14.00" fill="#000000">0..N</text>
</g>
<!-- Echantillons&#45;&#45;Manipulations -->
<g id="edge4" class="edge">
<title>Echantillons&#45;&#45;Manipulations</title>
<path fill="none" stroke="#7f7f7f" stroke-dasharray="5,2" d="M473.8095,-293.4987C522.7212,-264.3339 586.2114,-226.4764 636.3971,-196.552"/>
<text text-anchor="start" x="605.3971" y="-185.352" font-family="Times,serif" font-size="14.00" fill="#000000">{0,1}</text>
<text text-anchor="start" x="473.8095" y="-282.2987" font-family="Times,serif" font-size="14.00" fill="#000000">0..N</text>
</g>
<!-- Lieux_de_prelevements -->
<g id="node5" class="node">
<title>Lieux_de_prelevements</title>
<polygon fill="none" stroke="#000000" points="8.5,-375 8.5,-403 201.5,-403 201.5,-375 8.5,-375"/>
<text text-anchor="start" x="13.5" y="-386.2" font-family="Helvetica,sans-Serif" font-weight="bold" font-size="16.00" fill="#000000">Lieux_de_prelevements</text>
<polygon fill="none" stroke="#000000" points="8.5,-350 8.5,-375 201.5,-375 201.5,-350 8.5,-350"/>
<text text-anchor="start" x="13.5" y="-359.8" font-family="Helvetica,sans-Serif" text-decoration="underline" font-size="14.00" fill="#000000">NomLieu</text>
<text text-anchor="start" x="68.5" y="-359.8" font-family="Helvetica,sans-Serif" font-size="14.00" fill="#000000"> [TEXT]</text>
<polygon fill="none" stroke="#000000" points="8.5,-325 8.5,-350 201.5,-350 201.5,-325 8.5,-325"/>
<text text-anchor="start" x="13.5" y="-334.8" font-family="Helvetica,sans-Serif" font-size="14.00" fill="#000000">XL72</text>
<text text-anchor="start" x="45.5" y="-334.8" font-family="Helvetica,sans-Serif" font-size="14.00" fill="#000000"> [REAL]</text>
<polygon fill="none" stroke="#000000" points="8.5,-300 8.5,-325 201.5,-325 201.5,-300 8.5,-300"/>
<text text-anchor="start" x="13.5" y="-309.8" font-family="Helvetica,sans-Serif" font-size="14.00" fill="#000000">YL72</text>
<text text-anchor="start" x="45.5" y="-309.8" font-family="Helvetica,sans-Serif" font-size="14.00" fill="#000000"> [REAL]</text>
<polygon fill="none" stroke="#000000" points="8.5,-275 8.5,-300 201.5,-300 201.5,-275 8.5,-275"/>
<text text-anchor="start" x="13.5" y="-284.8" font-family="Helvetica,sans-Serif" font-size="14.00" fill="#000000">Altitude</text>
<text text-anchor="start" x="59.5" y="-284.8" font-family="Helvetica,sans-Serif" font-size="14.00" fill="#000000"> [REAL]</text>
</g>
<!-- Lieux_de_prelevements&#45;&#45;Echantillons -->
<g id="edge5" class="edge">
<title>Lieux_de_prelevements&#45;&#45;Echantillons</title>
<path fill="none" stroke="#7f7f7f" stroke-dasharray="5,2" d="M209.0388,-339C246.0168,-339 286.89,-339 321.0938,-339"/>
<text text-anchor="start" x="290.0938" y="-327.8" font-family="Times,serif" font-size="14.00" fill="#000000">{0,1}</text>
<text text-anchor="start" x="209.0388" y="-327.8" font-family="Times,serif" font-size="14.00" fill="#000000">0..N</text>
</g>
<!-- Procedures -->
<g id="node6" class="node">
<title>Procedures</title>
<polygon fill="none" stroke="#000000" points="290.5,-104 290.5,-132 505.5,-132 505.5,-104 290.5,-104"/>
<text text-anchor="start" x="354" y="-115.2" font-family="Helvetica,sans-Serif" font-weight="bold" font-size="16.00" fill="#000000">Procedures</text>
<polygon fill="none" stroke="#000000" points="290.5,-79 290.5,-104 505.5,-104 505.5,-79 290.5,-79"/>
<text text-anchor="start" x="295.5" y="-88.8" font-family="Helvetica,sans-Serif" text-decoration="underline" font-size="14.00" fill="#000000">Nom</text>
<text text-anchor="start" x="325.5" y="-88.8" font-family="Helvetica,sans-Serif" font-size="14.00" fill="#000000"> [TEXT]</text>
<polygon fill="none" stroke="#000000" points="290.5,-54 290.5,-79 505.5,-79 505.5,-54 290.5,-54"/>
<text text-anchor="start" x="295.5" y="-63.8" font-family="Helvetica,sans-Serif" font-size="14.00" fill="#000000">Type_de_manipulation</text>
<text text-anchor="start" x="433.5" y="-63.8" font-family="Helvetica,sans-Serif" font-size="14.00" fill="#000000"> [TEXT]</text>
<polygon fill="none" stroke="#000000" points="290.5,-29 290.5,-54 505.5,-54 505.5,-29 290.5,-29"/>
<text text-anchor="start" x="295.5" y="-38.8" font-family="Helvetica,sans-Serif" font-size="14.00" fill="#000000">Equipement</text>
<text text-anchor="start" x="368.5" y="-38.8" font-family="Helvetica,sans-Serif" font-size="14.00" fill="#000000"> [TEXT]</text>
<polygon fill="none" stroke="#000000" points="290.5,-4 290.5,-29 505.5,-29 505.5,-4 290.5,-4"/>
<text text-anchor="start" x="295.5" y="-13.8" font-family="Helvetica,sans-Serif" font-size="14.00" fill="#000000">Description_de_procedure</text>
<text text-anchor="start" x="454.5" y="-13.8" font-family="Helvetica,sans-Serif" font-size="14.00" fill="#000000"> [TEXT]</text>
</g>
<!-- Procedures&#45;&#45;Manipulations -->
<g id="edge6" class="edge">
<title>Procedures&#45;&#45;Manipulations</title>
<path fill="none" stroke="#7f7f7f" stroke-dasharray="5,2" d="M513.2945,-96.4092C553.8622,-106.3622 598.597,-117.3375 636.0019,-126.5144"/>
<text text-anchor="start" x="605.0019" y="-115.3144" font-family="Times,serif" font-size="14.00" fill="#000000">{0,1}</text>
<text text-anchor="start" x="513.2945" y="-85.2092" font-family="Times,serif" font-size="14.00" fill="#000000">0..N</text>
</g>
</g>
</svg>
