<?xml version="1.0" encoding="UTF-8" standalone="no"?>
<!DOCTYPE svg PUBLIC "-//W3C//DTD SVG 1.1//EN"
 "http://www.w3.org/Graphics/SVG/1.1/DTD/svg11.dtd">
<!-- Generated by graphviz version 2.43.0 (0)
 -->
<!-- Title: %3 Pages: 1 -->
<svg width="862pt" height="374pt"
 viewBox="0.00 0.00 862.00 373.50" xmlns="http://www.w3.org/2000/svg" xmlns:xlink="http://www.w3.org/1999/xlink">
<g id="graph0" class="graph" transform="scale(1 1) rotate(0) translate(4 369.5)">
<title>%3</title>
<polygon fill="white" stroke="transparent" points="-4,4 -4,-369.5 858,-369.5 858,4 -4,4"/>
<!-- Descriptions_et_interpretations -->
<g id="node1" class="node">
<title>Descriptions_et_interpretations</title>
<polygon fill="none" stroke="black" points="552,-333 552,-361 846,-361 846,-333 552,-333"/>
<text text-anchor="start" x="557" y="-344.2" font-family="Helvetica,sans-Serif" font-weight="bold" font-size="16.00">Descriptions_et_interpretations</text>
<polygon fill="none" stroke="black" points="552,-308 552,-333 846,-333 846,-308 552,-308"/>
<text text-anchor="start" x="557" y="-317.8" font-family="Helvetica,sans-Serif" text-decoration="underline" font-size="14.00">NumInterp</text>
<text text-anchor="start" x="633" y="-317.8" font-family="Helvetica,sans-Serif" font-size="14.00"> [INTEGER]</text>
<polygon fill="none" stroke="black" points="552,-283 552,-308 846,-308 846,-283 552,-283"/>
<text text-anchor="start" x="557" y="-292.8" font-family="Helvetica,sans-Serif" font-size="14.00">NumAbs</text>
<text text-anchor="start" x="617" y="-292.8" font-family="Helvetica,sans-Serif" font-size="14.00"> [INTEGER]</text>
<polygon fill="none" stroke="black" points="552,-258 552,-283 846,-283 846,-258 552,-258"/>
<text text-anchor="start" x="557" y="-267.8" font-family="Helvetica,sans-Serif" font-size="14.00">Auteur</text>
<text text-anchor="start" x="605" y="-267.8" font-family="Helvetica,sans-Serif" font-size="14.00"> [TEXT]</text>
<polygon fill="none" stroke="black" points="552,-233 552,-258 846,-258 846,-233 552,-233"/>
<text text-anchor="start" x="557" y="-242.8" font-family="Helvetica,sans-Serif" font-size="14.00">Date</text>
<text text-anchor="start" x="590" y="-242.8" font-family="Helvetica,sans-Serif" font-size="14.00"> [DATETIME]</text>
<polygon fill="none" stroke="black" points="552,-208 552,-233 846,-233 846,-208 552,-208"/>
<text text-anchor="start" x="557" y="-217.8" font-family="Helvetica,sans-Serif" font-size="14.00">Commentaire</text>
<text text-anchor="start" x="651" y="-217.8" font-family="Helvetica,sans-Serif" font-size="14.00"> [TEXT]</text>
</g>
<!-- Personnes -->
<g id="node2" class="node">
<title>Personnes</title>
<polygon fill="none" stroke="black" points="337.5,-275 337.5,-303 442.5,-303 442.5,-275 337.5,-275"/>
<text text-anchor="start" x="342.5" y="-286.2" font-family="Helvetica,sans-Serif" font-weight="bold" font-size="16.00">Personnes</text>
<polygon fill="none" stroke="black" points="337.5,-250 337.5,-275 442.5,-275 442.5,-250 337.5,-250"/>
<text text-anchor="start" x="342.5" y="-259.8" font-family="Helvetica,sans-Serif" text-decoration="underline" font-size="14.00">Nom</text>
<text text-anchor="start" x="375.5" y="-259.8" font-family="Helvetica,sans-Serif" font-size="14.00"> [TEXT]</text>
</g>
<!-- Personnes&#45;&#45;Descriptions_et_interpretations -->
<g id="edge1" class="edge">
<title>Personnes&#45;&#45;Descriptions_et_interpretations</title>
<path fill="none" stroke="#7f7f7f" stroke-dasharray="5,2" d="M450.15,-278.55C477.14,-279.25 510.4,-280.12 543.71,-280.99"/>
<text text-anchor="start" x="502.71" y="-269.79" font-family="Times,serif" font-size="14.00">{0,1}</text>
<text text-anchor="start" x="450.15" y="-267.35" font-family="Times,serif" font-size="14.00">0..N</text>
</g>
<!-- Manipulations -->
<g id="node3" class="node">
<title>Manipulations</title>
<polygon fill="none" stroke="black" points="618,-154 618,-182 781,-182 781,-154 618,-154"/>
<text text-anchor="start" x="636" y="-165.2" font-family="Helvetica,sans-Serif" font-weight="bold" font-size="16.00">Manipulations</text>
<polygon fill="none" stroke="black" points="618,-129 618,-154 781,-154 781,-129 618,-129"/>
<text text-anchor="start" x="623" y="-138.8" font-family="Helvetica,sans-Serif" text-decoration="underline" font-size="14.00">NumManip</text>
<text text-anchor="start" x="699" y="-138.8" font-family="Helvetica,sans-Serif" font-size="14.00"> [INTEGER]</text>
<polygon fill="none" stroke="black" points="618,-104 618,-129 781,-129 781,-104 618,-104"/>
<text text-anchor="start" x="623" y="-113.8" font-family="Helvetica,sans-Serif" font-size="14.00">NumAbs</text>
<text text-anchor="start" x="683" y="-113.8" font-family="Helvetica,sans-Serif" font-size="14.00"> [INTEGER]</text>
<polygon fill="none" stroke="black" points="618,-79 618,-104 781,-104 781,-79 618,-79"/>
<text text-anchor="start" x="623" y="-88.8" font-family="Helvetica,sans-Serif" font-size="14.00">Operateur</text>
<text text-anchor="start" x="695" y="-88.8" font-family="Helvetica,sans-Serif" font-size="14.00"> [TEXT]</text>
<polygon fill="none" stroke="black" points="618,-54 618,-79 781,-79 781,-54 618,-54"/>
<text text-anchor="start" x="623" y="-63.8" font-family="Helvetica,sans-Serif" font-size="14.00">Procedure</text>
<text text-anchor="start" x="693" y="-63.8" font-family="Helvetica,sans-Serif" font-size="14.00"> [TEXT]</text>
<polygon fill="none" stroke="black" points="618,-29 618,-54 781,-54 781,-29 618,-29"/>
<text text-anchor="start" x="623" y="-38.8" font-family="Helvetica,sans-Serif" font-size="14.00">Date</text>
<text text-anchor="start" x="656" y="-38.8" font-family="Helvetica,sans-Serif" font-size="14.00"> [DATETIME]</text>
<polygon fill="none" stroke="black" points="618,-4 618,-29 781,-29 781,-4 618,-4"/>
<text text-anchor="start" x="623" y="-13.8" font-family="Helvetica,sans-Serif" font-size="14.00">Resultat</text>
<text text-anchor="start" x="681" y="-13.8" font-family="Helvetica,sans-Serif" font-size="14.00"> [TEXT]</text>
</g>
<!-- Personnes&#45;&#45;Manipulations -->
<g id="edge2" class="edge">
<title>Personnes&#45;&#45;Manipulations</title>
<path fill="none" stroke="#7f7f7f" stroke-dasharray="5,2" d="M443.39,-246.27C452.61,-240.87 462.09,-235.29 471,-230 516.72,-202.86 567.39,-172.32 609.24,-146.98"/>
<text text-anchor="start" x="568.24" y="-135.78" font-family="Times,serif" font-size="14.00">{0,1}</text>
<text text-anchor="start" x="412.39" y="-235.07" font-family="Times,serif" font-size="14.00">0..N</text>
</g>
<!-- Echantillons -->
<g id="node4" class="node">
<title>Echantillons</title>
<polygon fill="none" stroke="black" points="316.5,-188 316.5,-216 463.5,-216 463.5,-188 316.5,-188"/>
<text text-anchor="start" x="335" y="-199.2" font-family="Helvetica,sans-Serif" font-weight="bold" font-size="16.00">Echantillons</text>
<polygon fill="none" stroke="black" points="316.5,-163 316.5,-188 463.5,-188 463.5,-163 316.5,-163"/>
<text text-anchor="start" x="321.5" y="-172.8" font-family="Helvetica,sans-Serif" text-decoration="underline" font-size="14.00">NumAbs</text>
<text text-anchor="start" x="381.5" y="-172.8" font-family="Helvetica,sans-Serif" font-size="14.00"> [INTEGER]</text>
<polygon fill="none" stroke="black" points="316.5,-138 316.5,-163 463.5,-163 463.5,-138 316.5,-138"/>
<text text-anchor="start" x="321.5" y="-147.8" font-family="Helvetica,sans-Serif" font-size="14.00">Origine</text>
<text text-anchor="start" x="373.5" y="-147.8" font-family="Helvetica,sans-Serif" font-size="14.00"> [TEXT]</text>
<polygon fill="none" stroke="black" points="316.5,-113 316.5,-138 463.5,-138 463.5,-113 316.5,-113"/>
<text text-anchor="start" x="321.5" y="-122.8" font-family="Helvetica,sans-Serif" font-size="14.00">NumTerrain</text>
<text text-anchor="start" x="403.5" y="-122.8" font-family="Helvetica,sans-Serif" font-size="14.00"> [TEXT]</text>
<polygon fill="none" stroke="black" points="316.5,-88 316.5,-113 463.5,-113 463.5,-88 316.5,-88"/>
<text text-anchor="start" x="321.5" y="-97.8" font-family="Helvetica,sans-Serif" font-size="14.00">Stockage</text>
<text text-anchor="start" x="385.5" y="-97.8" font-family="Helvetica,sans-Serif" font-size="14.00"> [TEXT]</text>
<polygon fill="none" stroke="black" points="316.5,-63 316.5,-88 463.5,-88 463.5,-63 316.5,-63"/>
<text text-anchor="start" x="321.5" y="-72.8" font-family="Helvetica,sans-Serif" font-size="14.00">Remarques</text>
<text text-anchor="start" x="401.5" y="-72.8" font-family="Helvetica,sans-Serif" font-size="14.00"> [TEXT]</text>
</g>
<!-- Echantillons&#45;&#45;Descriptions_et_interpretations -->
<g id="edge3" class="edge">
<title>Echantillons&#45;&#45;Descriptions_et_interpretations</title>
<path fill="none" stroke="#7f7f7f" stroke-dasharray="5,2" d="M471.29,-178.1C493.71,-188.67 518.83,-200.51 543.95,-212.36"/>
<text text-anchor="start" x="502.95" y="-201.16" font-family="Times,serif" font-size="14.00">{0,1}</text>
<text text-anchor="start" x="471.29" y="-166.9" font-family="Times,serif" font-size="14.00">0..N</text>
</g>
<!-- Echantillons&#45;&#45;Manipulations -->
<g id="edge4" class="edge">
<title>Echantillons&#45;&#45;Manipulations</title>
<path fill="none" stroke="#7f7f7f" stroke-dasharray="5,2" d="M471.29,-127.65C513.73,-121.16 565.83,-113.2 609.37,-106.55"/>
<text text-anchor="start" x="568.37" y="-95.35" font-family="Times,serif" font-size="14.00">{0,1}</text>
<text text-anchor="start" x="471.29" y="-116.45" font-family="Times,serif" font-size="14.00">0..N</text>
</g>
<!-- Lieux_de_prelevements -->
<g id="node5" class="node">
<title>Lieux_de_prelevements</title>
<polygon fill="none" stroke="black" points="8.5,-176 8.5,-204 227.5,-204 227.5,-176 8.5,-176"/>
<text text-anchor="start" x="13.5" y="-187.2" font-family="Helvetica,sans-Serif" font-weight="bold" font-size="16.00">Lieux_de_prelevements</text>
<polygon fill="none" stroke="black" points="8.5,-151 8.5,-176 227.5,-176 227.5,-151 8.5,-151"/>
<text text-anchor="start" x="13.5" y="-160.8" font-family="Helvetica,sans-Serif" text-decoration="underline" font-size="14.00">NomLieu</text>
<text text-anchor="start" x="74.5" y="-160.8" font-family="Helvetica,sans-Serif" font-size="14.00"> [TEXT]</text>
<polygon fill="none" stroke="black" points="8.5,-126 8.5,-151 227.5,-151 227.5,-126 8.5,-126"/>
<text text-anchor="start" x="13.5" y="-135.8" font-family="Helvetica,sans-Serif" font-size="14.00">XL72</text>
<text text-anchor="start" x="49.5" y="-135.8" font-family="Helvetica,sans-Serif" font-size="14.00"> [REAL]</text>
<polygon fill="none" stroke="black" points="8.5,-101 8.5,-126 227.5,-126 227.5,-101 8.5,-101"/>
<text text-anchor="start" x="13.5" y="-110.8" font-family="Helvetica,sans-Serif" font-size="14.00">YL72</text>
<text text-anchor="start" x="47.5" y="-110.8" font-family="Helvetica,sans-Serif" font-size="14.00"> [REAL]</text>
<polygon fill="none" stroke="black" points="8.5,-76 8.5,-101 227.5,-101 227.5,-76 8.5,-76"/>
<text text-anchor="start" x="13.5" y="-85.8" font-family="Helvetica,sans-Serif" font-size="14.00">Altitude</text>
<text text-anchor="start" x="68.5" y="-85.8" font-family="Helvetica,sans-Serif" font-size="14.00"> [REAL]</text>
</g>
<!-- Lieux_de_prelevements&#45;&#45;Echantillons -->
<g id="edge5" class="edge">
<title>Lieux_de_prelevements&#45;&#45;Echantillons</title>
<path fill="none" stroke="#7f7f7f" stroke-dasharray="5,2" d="M235.36,-140C259.73,-140 284.9,-140 307.62,-140"/>
<text text-anchor="start" x="266.62" y="-128.8" font-family="Times,serif" font-size="14.00">{0,1}</text>
<text text-anchor="start" x="235.36" y="-128.8" font-family="Times,serif" font-size="14.00">0..N</text>
</g>
</g>
</svg>
