<?xml version="1.0" encoding="UTF-8" standalone="no"?>
<!DOCTYPE svg PUBLIC "-//W3C//DTD SVG 1.1//EN"
 "http://www.w3.org/Graphics/SVG/1.1/DTD/svg11.dtd">
<!-- Generated by graphviz version 2.43.0 (0)
 -->
<!-- Title: %3 Pages: 1 -->
<svg width="622pt" height="248pt"
 viewBox="0.00 0.00 622.00 248.00" xmlns="http://www.w3.org/2000/svg" xmlns:xlink="http://www.w3.org/1999/xlink">
<g id="graph0" class="graph" transform="scale(1 1) rotate(0) translate(4 244)">
<title>%3</title>
<polygon fill="white" stroke="transparent" points="-4,4 -4,-244 618,-244 618,4 -4,4"/>
<!-- niveaux -->
<g id="node1" class="node">
<title>niveaux</title>
<polygon fill="none" stroke="black" points="464,-207.5 464,-235.5 606,-235.5 606,-207.5 464,-207.5"/>
<text text-anchor="start" x="500" y="-218.7" font-family="Helvetica,sans-Serif" font-weight="bold" font-size="16.00">niveaux</text>
<polygon fill="none" stroke="black" points="464,-182.5 464,-207.5 606,-207.5 606,-182.5 464,-182.5"/>
<text text-anchor="start" x="469" y="-192.3" font-family="Helvetica,sans-Serif" text-decoration="underline" font-size="14.00">nom_piezo</text>
<text text-anchor="start" x="544" y="-192.3" font-family="Helvetica,sans-Serif" font-size="14.00"> [TEXT]</text>
<polygon fill="none" stroke="black" points="464,-157.5 464,-182.5 606,-182.5 606,-157.5 464,-157.5"/>
<text text-anchor="start" x="469" y="-167.3" font-family="Helvetica,sans-Serif" text-decoration="underline" font-size="14.00">date_releve</text>
<text text-anchor="start" x="549" y="-167.3" font-family="Helvetica,sans-Serif" font-size="14.00"> [DATE]</text>
<polygon fill="none" stroke="black" points="464,-132.5 464,-157.5 606,-157.5 606,-132.5 464,-132.5"/>
<text text-anchor="start" x="469" y="-142.3" font-family="Helvetica,sans-Serif" font-size="14.00">niveau</text>
<text text-anchor="start" x="516" y="-142.3" font-family="Helvetica,sans-Serif" font-size="14.00"> [REAL]</text>
</g>
<!-- piezometres -->
<g id="node2" class="node">
<title>piezometres</title>
<polygon fill="none" stroke="black" points="228.5,-189.5 228.5,-217.5 374.5,-217.5 374.5,-189.5 228.5,-189.5"/>
<text text-anchor="start" x="246" y="-200.7" font-family="Helvetica,sans-Serif" font-weight="bold" font-size="16.00">piezometres</text>
<polygon fill="none" stroke="black" points="228.5,-164.5 228.5,-189.5 374.5,-189.5 374.5,-164.5 228.5,-164.5"/>
<text text-anchor="start" x="233.5" y="-174.3" font-family="Helvetica,sans-Serif" text-decoration="underline" font-size="14.00">nom</text>
<text text-anchor="start" x="264.5" y="-174.3" font-family="Helvetica,sans-Serif" font-size="14.00"> [TEXT]</text>
<polygon fill="none" stroke="black" points="228.5,-139.5 228.5,-164.5 374.5,-164.5 374.5,-139.5 228.5,-139.5"/>
<text text-anchor="start" x="233.5" y="-149.3" font-family="Helvetica,sans-Serif" font-size="14.00">enregistreur</text>
<text text-anchor="start" x="318.5" y="-149.3" font-family="Helvetica,sans-Serif" font-size="14.00"> [TEXT]</text>
</g>
<!-- piezometres&#45;&#45;niveaux -->
<g id="edge1" class="edge">
<title>piezometres&#45;&#45;niveaux</title>
<path fill="none" stroke="#7f7f7f" stroke-dasharray="5,2" d="M382.82,-180.58C406.45,-181.19 432.27,-181.86 455.78,-182.47"/>
<text text-anchor="start" x="414.78" y="-171.27" font-family="Times,serif" font-size="14.00">{0,1}</text>
<text text-anchor="start" x="382.82" y="-169.38" font-family="Times,serif" font-size="14.00">0..N</text>
</g>
<!-- ouvrages -->
<g id="node3" class="node">
<title>ouvrages</title>
<polygon fill="none" stroke="black" points="8.5,-125.5 8.5,-153.5 139.5,-153.5 139.5,-125.5 8.5,-125.5"/>
<text text-anchor="start" x="32" y="-136.7" font-family="Helvetica,sans-Serif" font-weight="bold" font-size="16.00">ouvrages</text>
<polygon fill="none" stroke="black" points="8.5,-100.5 8.5,-125.5 139.5,-125.5 139.5,-100.5 8.5,-100.5"/>
<text text-anchor="start" x="13.5" y="-110.3" font-family="Helvetica,sans-Serif" text-decoration="underline" font-size="14.00">nom</text>
<text text-anchor="start" x="44.5" y="-110.3" font-family="Helvetica,sans-Serif" font-size="14.00"> [TEXT]</text>
<polygon fill="none" stroke="black" points="8.5,-75.5 8.5,-100.5 139.5,-100.5 139.5,-75.5 8.5,-75.5"/>
<text text-anchor="start" x="13.5" y="-85.3" font-family="Helvetica,sans-Serif" font-size="14.00">commune</text>
<text text-anchor="start" x="83.5" y="-85.3" font-family="Helvetica,sans-Serif" font-size="14.00"> [TEXT]</text>
</g>
<!-- ouvrages&#45;&#45;piezometres -->
<g id="edge2" class="edge">
<title>ouvrages&#45;&#45;piezometres</title>
<path fill="none" stroke="#7f7f7f" stroke-dasharray="5,2" d="M147.25,-135.1C170.61,-141.72 196.6,-149.08 220.45,-155.83"/>
<text text-anchor="start" x="179.45" y="-144.63" font-family="Times,serif" font-size="14.00">{0,1}</text>
<text text-anchor="start" x="147.25" y="-123.9" font-family="Times,serif" font-size="14.00">0..N</text>
</g>
<!-- puits_captages -->
<g id="node4" class="node">
<title>puits_captages</title>
<polygon fill="none" stroke="black" points="228.5,-73.5 228.5,-101.5 375.5,-101.5 375.5,-73.5 228.5,-73.5"/>
<text text-anchor="start" x="234.5" y="-84.7" font-family="Helvetica,sans-Serif" font-weight="bold" font-size="16.00">puits_captages</text>
<polygon fill="none" stroke="black" points="228.5,-48.5 228.5,-73.5 375.5,-73.5 375.5,-48.5 228.5,-48.5"/>
<text text-anchor="start" x="233.5" y="-58.3" font-family="Helvetica,sans-Serif" text-decoration="underline" font-size="14.00">nom</text>
<text text-anchor="start" x="264.5" y="-58.3" font-family="Helvetica,sans-Serif" font-size="14.00"> [TEXT]</text>
<polygon fill="none" stroke="black" points="228.5,-23.5 228.5,-48.5 375.5,-48.5 375.5,-23.5 228.5,-23.5"/>
<text text-anchor="start" x="233.5" y="-33.3" font-family="Helvetica,sans-Serif" font-size="14.00">type_pompe</text>
<text text-anchor="start" x="319.5" y="-33.3" font-family="Helvetica,sans-Serif" font-size="14.00"> [TEXT]</text>
</g>
<!-- ouvrages&#45;&#45;puits_captages -->
<g id="edge3" class="edge">
<title>ouvrages&#45;&#45;puits_captages</title>
<path fill="none" stroke="#7f7f7f" stroke-dasharray="5,2" d="M147.25,-97.76C170.35,-92.45 196.03,-86.54 219.66,-81.1"/>
<text text-anchor="start" x="178.66" y="-69.9" font-family="Times,serif" font-size="14.00">{0,1}</text>
<text text-anchor="start" x="147.25" y="-86.56" font-family="Times,serif" font-size="14.00">0..N</text>
</g>
<!-- prelevements -->
<g id="node5" class="node">
<title>prelevements</title>
<polygon fill="none" stroke="black" points="468,-78.5 468,-106.5 602,-106.5 602,-78.5 468,-78.5"/>
<text text-anchor="start" x="473.5" y="-89.7" font-family="Helvetica,sans-Serif" font-weight="bold" font-size="16.00">prelevements</text>
<polygon fill="none" stroke="black" points="468,-53.5 468,-78.5 602,-78.5 602,-53.5 468,-53.5"/>
<text text-anchor="start" x="473" y="-63.3" font-family="Helvetica,sans-Serif" text-decoration="underline" font-size="14.00">nom_puits</text>
<text text-anchor="start" x="546" y="-63.3" font-family="Helvetica,sans-Serif" font-size="14.00"> [TEXT]</text>
<polygon fill="none" stroke="black" points="468,-28.5 468,-53.5 602,-53.5 602,-28.5 468,-28.5"/>
<text text-anchor="start" x="473" y="-38.3" font-family="Helvetica,sans-Serif" text-decoration="underline" font-size="14.00">annee</text>
<text text-anchor="start" x="516" y="-38.3" font-family="Helvetica,sans-Serif" font-size="14.00"> [INTEGER]</text>
<polygon fill="none" stroke="black" points="468,-3.5 468,-28.5 602,-28.5 602,-3.5 468,-3.5"/>
<text text-anchor="start" x="473" y="-13.3" font-family="Helvetica,sans-Serif" font-size="14.00">volume</text>
<text text-anchor="start" x="525" y="-13.3" font-family="Helvetica,sans-Serif" font-size="14.00"> [REAL]</text>
</g>
<!-- puits_captages&#45;&#45;prelevements -->
<g id="edge4" class="edge">
<title>puits_captages&#45;&#45;prelevements</title>
<path fill="none" stroke="#7f7f7f" stroke-dasharray="5,2" d="M383.14,-60.06C408.07,-59.31 435.39,-58.48 459.85,-57.74"/>
<text text-anchor="start" x="418.85" y="-46.54" font-family="Times,serif" font-size="14.00">{0,1}</text>
<text text-anchor="start" x="383.14" y="-48.86" font-family="Times,serif" font-size="14.00">0..N</text>
</g>
</g>
</svg>
